Coordinates
version=1
nRows=7
nColumns=40
inDegrees=yes

Units are S.I. units (second, meters, Newtons, ...)
Angles are in degrees.

endheader
time	pelvis_tilt	pelvis_list	pelvis_rotation	pelvis_tx	pelvis_ty	pelvis_tz	hip_flexion_r	hip_adduction_r	hip_rotation_r	knee_angle_r	knee_angle_r_beta	ankle_angle_r	subtalar_angle_r	mtp_angle_r	hip_flexion_l	hip_adduction_l	hip_rotation_l	knee_angle_l	knee_angle_l_beta	ankle_angle_l	subtalar_angle_l	mtp_angle_l	lumbar_extension	lumbar_bending	lumbar_rotation	arm_flex_r	arm_add_r	arm_rot_r	elbow_flex_r	pro_sup_r	wrist_flex_r	wrist_dev_r	arm_flex_l	arm_add_l	arm_rot_l	elbow_flex_l	pro_sup_l	wrist_flex_l	wrist_dev_l
      1.37000000	     -0.23823925	      2.69132635	     -2.88866646	      0.60788826	      0.94041145	      1.08015689	    -10.97098422	     -3.61668077	    -20.39473530	    -15.35594125	     -0.26801173	     11.54508138	      5.42641430	    -15.68552667	     24.05357320	      0.82563146	     22.71095118	    -10.48941600	     -0.18307485	     -1.04882071	      2.70371863	      7.34711620	     -2.41889809	     -6.49862723	     10.73788190	     12.30440760	    -18.05270079	    -10.11254971	     31.05825739	     89.95437384	      0.00000000	      0.00000000	    -16.77004751	     11.40010885	     12.66178758	     10.29538525	     89.95437384	      0.00000000	      0.00000000
      1.38000000	      0.18947487	      2.85225657	     -2.98263540	      0.61936483	      0.93979227	      1.07869637	    -11.92145259	     -4.12205811	    -20.55518416	    -15.92422974	     -0.27793024	     11.51605647	      5.34434299	    -15.56733785	     23.72294449	      0.56356625	     21.96844103	    -11.69669449	     -0.20414583	     -0.63655528	      3.50822615	      7.10236617	     -2.65927861	     -6.71320128	     10.98883153	     12.39075453	    -17.86430290	    -10.43530340	     30.78027150	     89.95437384	      0.00000000	      0.00000000	    -16.42099848	     11.50663993	     12.32443719	      9.41251286	     89.95437384	      0.00000000	      0.00000000
      1.39000000	      0.42606648	      3.09424269	     -2.97527128	      0.63123254	      0.93898702	      1.07648272	    -12.61426783	     -4.84517098	    -21.02514740	    -16.67094252	     -0.29096284	     11.11322444	      6.24037104	    -15.78759257	     23.18838350	     -0.18623579	     20.11983412	    -12.14456446	     -0.21196264	     -0.29234498	      6.08072004	      6.99560306	     -2.63801932	     -6.95693178	     11.22137862	     12.12707217	    -17.61579779	    -11.24692058	     30.87651858	     89.95437384	      0.00000000	      0.00000000	    -16.43772749	     11.57582769	     12.08126724	      9.48586177	     89.95437384	      0.00000000	      0.00000000
      1.40000000	      0.58353032	      3.14579615	     -3.09946719	      0.64314839	      0.93796633	      1.07472253	    -13.11313509	     -5.28991316	    -20.90792831	    -17.56347847	     -0.30654053	     10.78803467	      6.01822350	    -15.54680692	     22.87997668	     -0.33026475	     19.60615710	    -13.19942233	     -0.23037338	     -0.18755314	      6.46960142	      6.83254301	     -2.47795105	     -6.99201296	     11.40474716	     11.96898643	    -17.50446181	    -11.01183414	     30.82664630	     89.95437384	      0.00000000	      0.00000000	    -16.44919421	     11.60550600	     11.83847536	      9.24448910	     89.95437384	      0.00000000	      0.00000000
      1.41000000	      0.43535454	      3.07852058	     -3.10061056	      0.65562556	      0.93660971	      1.07262511	    -13.40411241	     -5.51046409	    -20.48669311	    -18.27309100	     -0.31892560	     10.41272059	      5.79399813	    -15.18897891	     22.67501184	     -0.41598835	     19.12663670	    -13.89223927	     -0.24246532	     -0.33343481	      6.32608504	      6.69329152	     -1.90992262	     -6.85508793	     11.47825390	     11.51183000	    -17.34484059	    -10.92671253	     30.97078633	     89.95437384	      0.00000000	      0.00000000	    -16.78245974	     11.59645075	     11.81273626	      9.58246283	     89.95437384	      0.00000000	      0.00000000
      1.42000000	      1.06544643	      3.67388562	     -3.38333288	      0.66811908	      0.93651120	      1.06998558	    -14.22378060	     -6.98245412	    -21.29506461	    -19.63446418	     -0.34268605	      9.75941311	      7.02505795	    -15.42968958	     21.49428503	     -1.40448325	     18.53374507	    -14.23251453	     -0.24840424	     -0.73928478	      8.57699825	      6.87947681	     -2.20082051	     -7.45049308	     11.86235861	     11.23669830	    -17.23806111	    -10.80360523	     30.91427047	     89.95437384	      0.00000000	      0.00000000	    -16.44876531	     11.57013666	     11.98738890	      9.16887448	     89.95437384	      0.00000000	      0.00000000
      1.43000000	      1.22926619	      3.65573028	     -3.33988556	      0.68057524	      0.93587197	      1.06755454	    -14.69259901	     -7.40637085	    -21.33895072	    -20.63988250	     -0.36023391	      9.07405918	      6.82035909	    -15.10979710	     21.28463659	     -1.37379375	     19.36617043	    -15.20016712	     -0.26529296	     -2.50371857	      9.07645625	      7.14264825	     -2.00423669	     -7.37832340	     11.88278558	     10.92943581	    -17.05431925	    -10.68517213	     30.75210629	     89.95437384	      0.00000000	      0.00000000	    -16.46820509	     11.56302549	     11.89422839	      9.24440429	     89.95437384	      0.00000000	      0.00000000
